/* XPM */
static const char * userattributes_xpm[] = {
"16 16 61 1",
" 	g None",
".	g #767676",
"+	g #747474",
"@	g #707070",
"#	g #6B6B6B",
"$	g #676767",
"%	g #626262",
"&	g #5D5D5D",
"*	g #575757",
"=	g #515151",
"-	g #4C4C4C",
";	g #454545",
">	g #3F3F3F",
",	g #656565",
"'	g #606060",
")	g #5B5B5B",
"!	g #555555",
"~	g #4F4F4F",
"{	g #494949",
"]	g #424242",
"^	g #3C3C3C",
"/	g #636363",
"(	g #5E5E5E",
"_	g #595959",
":	g #525252",
"<	g #4D4D4D",
"[	g #464646",
"}	g #404040",
"|	g #3A3A3A",
"1	g #333333",
"2	g #2C2C2C",
"3	g #262626",
"4	g #1F1F1F",
"5	g #4A4A4A",
"6	g #434343",
"7	g #3D3D3D",
"8	g #363636",
"9	g #303030",
"0	g #292929",
"a	g #222222",
"b	g #1D1D1D",
"c	g #484848",
"d	g #414141",
"e	g #3B3B3B",
"f	g #343434",
"g	g #2D2D2D",
"h	g #272727",
"i	g #202020",
"j	g #191919",
"k	g #141414",
"l	g #0E0E0E",
"m	g #080808",
"n	g #040404",
"o	g #2A2A2A",
"p	g #232323",
"q	g #1E1E1E",
"r	g #171717",
"s	g #111111",
"t	g #0B0B0B",
"u	g #060606",
"v	g #030303",
"                ",
"                ",
"                ",
"  .+@#$%&*=-;>  ",
"                ",
"    ,')!~{]^    ",
"                ",
"  /(_:<[}|1234  ",
"                ",
"    567890ab    ",
"                ",
"  cdefghijklmn  ",
"                ",
"    opqrstuv    ",
"                ",
"                "};
